<?xml version="1.0" encoding="UTF-8"?>
<svg xmlns="http://www.w3.org/2000/svg" xmlns:xlink="http://www.w3.org/1999/xlink" width="64px" height="64px" viewBox="0 0 64 64" version="1.1">
<g id="surface1">
<path style=" stroke:none;fill-rule:nonzero;fill:rgb(0%,0%,0%);fill-opacity:1;" d="M 20.90625 30.75 C 20.464844 32.765625 18.664062 34.28125 16.519531 34.28125 C 15.945312 34.28125 15.480469 34.746094 15.480469 35.316406 C 15.480469 35.890625 15.945312 36.355469 16.519531 36.355469 C 19.804688 36.355469 22.535156 33.925781 23.011719 30.773438 C 25.023438 30.554688 26.878906 29.65625 28.316406 28.191406 C 28.71875 27.78125 28.710938 27.125 28.300781 26.722656 C 27.894531 26.324219 27.238281 26.328125 26.835938 26.738281 C 25.566406 28.035156 23.863281 28.75 22.046875 28.75 C 18.351562 28.75 15.34375 25.746094 15.34375 22.046875 C 15.34375 21.476562 14.878906 21.011719 14.308594 21.011719 C 13.734375 21.011719 13.269531 21.476562 13.269531 22.046875 C 13.269531 26.5 16.605469 30.1875 20.90625 30.75 Z M 20.90625 30.75 "/>
<path style=" stroke:none;fill-rule:nonzero;fill:rgb(0%,0%,0%);fill-opacity:1;" d="M 25.296875 39.742188 C 25.296875 39.167969 24.832031 38.703125 24.257812 38.703125 C 19.417969 38.703125 15.480469 42.640625 15.480469 47.480469 C 15.480469 47.53125 15.484375 47.582031 15.484375 47.632812 C 15.097656 47.578125 14.707031 47.550781 14.308594 47.550781 C 13.734375 47.550781 13.269531 48.015625 13.269531 48.585938 C 13.269531 49.160156 13.734375 49.625 14.308594 49.625 C 18.003906 49.625 21.011719 52.632812 21.011719 56.328125 C 21.011719 56.902344 21.476562 57.363281 22.046875 57.363281 C 22.621094 57.363281 23.085938 56.902344 23.085938 56.328125 C 23.085938 52.648438 20.808594 49.496094 17.59375 48.191406 C 17.566406 47.957031 17.554688 47.71875 17.554688 47.480469 C 17.554688 43.785156 20.5625 40.777344 24.257812 40.777344 C 24.832031 40.777344 25.296875 40.3125 25.296875 39.742188 Z M 25.296875 39.742188 "/>
<path style=" stroke:none;fill-rule:nonzero;fill:rgb(0%,0%,0%);fill-opacity:1;" d="M 60.683594 30.894531 C 60.683594 28.535156 59.738281 26.296875 58.074219 24.652344 C 58.335938 23.808594 58.472656 22.933594 58.472656 22.046875 C 58.472656 17.78125 55.410156 14.214844 51.367188 13.433594 C 51.675781 12.660156 51.835938 11.835938 51.835938 10.988281 C 51.835938 8.285156 50.191406 5.960938 47.855469 4.953125 C 43.957031 1.851562 39.695312 0 36.421875 0 C 34.605469 0 32.992188 0.894531 32 2.265625 C 31.007812 0.894531 29.394531 0 27.578125 0 C 24.304688 0 20.042969 1.851562 16.144531 4.953125 C 13.808594 5.960938 12.164062 8.285156 12.164062 10.988281 C 12.164062 11.835938 12.324219 12.660156 12.632812 13.433594 C 8.589844 14.214844 5.527344 17.78125 5.527344 22.046875 C 5.527344 22.933594 5.664062 23.808594 5.925781 24.652344 C 4.261719 26.296875 3.316406 28.535156 3.316406 30.894531 C 3.316406 32.738281 3.890625 34.453125 4.867188 35.867188 C 3.851562 37.332031 3.316406 39.046875 3.316406 40.847656 C 3.316406 44.039062 5.058594 46.960938 7.8125 48.503906 C 7.765625 48.898438 7.742188 49.296875 7.742188 49.691406 C 7.742188 54 10.550781 57.804688 14.625 59.101562 C 16.394531 62.132812 19.625 64 23.152344 64 C 27.023438 64 30.378906 61.761719 32 58.515625 C 33.621094 61.761719 36.976562 64 40.847656 64 C 44.375 64 47.605469 62.132812 49.375 59.101562 C 53.449219 57.804688 56.257812 54 56.257812 49.691406 C 56.257812 49.296875 56.234375 48.898438 56.1875 48.503906 C 58.941406 46.960938 60.683594 44.039062 60.683594 40.847656 C 60.683594 39.046875 60.148438 37.332031 59.132812 35.867188 C 60.109375 34.453125 60.683594 32.738281 60.683594 30.894531 Z M 23.152344 61.925781 C 20.246094 61.925781 17.597656 60.324219 16.242188 57.746094 C 16.105469 57.488281 15.871094 57.300781 15.59375 57.226562 C 12.191406 56.308594 9.8125 53.210938 9.8125 49.691406 C 9.8125 49.167969 9.867188 48.640625 9.972656 48.125 C 10.070312 47.648438 9.820312 47.167969 9.378906 46.972656 C 6.957031 45.894531 5.390625 43.492188 5.390625 40.847656 C 5.390625 39.644531 5.703125 38.496094 6.296875 37.476562 C 7.84375 38.839844 9.875 39.671875 12.09375 39.671875 C 12.667969 39.671875 13.132812 39.207031 13.132812 38.636719 C 13.132812 38.0625 12.667969 37.597656 12.09375 37.597656 C 8.398438 37.597656 5.390625 34.589844 5.390625 30.894531 C 5.390625 28.902344 6.269531 27.027344 7.800781 25.75 C 8.144531 25.460938 8.265625 24.980469 8.097656 24.5625 C 7.769531 23.757812 7.601562 22.910156 7.601562 22.046875 C 7.601562 18.351562 10.609375 15.34375 14.308594 15.34375 C 18.003906 15.34375 21.011719 18.351562 21.011719 22.046875 C 21.011719 22.621094 21.476562 23.085938 22.046875 23.085938 C 22.621094 23.085938 23.085938 22.621094 23.085938 22.046875 C 23.085938 17.398438 19.449219 13.582031 14.871094 13.289062 C 14.457031 12.597656 14.238281 11.808594 14.238281 10.988281 C 14.238281 9.140625 15.359375 7.550781 16.957031 6.863281 C 17.019531 6.84375 17.078125 6.820312 17.136719 6.789062 C 17.632812 6.601562 18.167969 6.496094 18.730469 6.496094 C 20.464844 6.496094 22.015625 7.46875 22.773438 9.03125 C 23.023438 9.546875 23.644531 9.761719 24.160156 9.507812 C 24.675781 9.257812 24.890625 8.640625 24.640625 8.125 C 23.773438 6.339844 22.132812 5.058594 20.246094 4.605469 C 22.890625 2.988281 25.496094 2.074219 27.578125 2.074219 C 29.445312 2.074219 30.964844 3.59375 30.964844 5.460938 L 30.964844 18.875 C 30.03125 18.136719 28.855469 17.691406 27.578125 17.691406 C 27.003906 17.691406 26.539062 18.15625 26.539062 18.730469 C 26.539062 19.300781 27.003906 19.765625 27.578125 19.765625 C 29.445312 19.765625 30.964844 21.285156 30.964844 23.152344 L 30.964844 48.074219 C 29.675781 46.410156 27.855469 45.15625 25.71875 44.582031 C 25.167969 44.433594 24.597656 44.761719 24.449219 45.3125 C 24.300781 45.867188 24.628906 46.433594 25.179688 46.582031 C 28.585938 47.496094 30.964844 50.59375 30.964844 54.117188 C 30.964844 58.421875 27.460938 61.925781 23.152344 61.925781 Z M 54.621094 46.972656 C 54.179688 47.167969 53.929688 47.648438 54.027344 48.125 C 54.132812 48.640625 54.1875 49.167969 54.1875 49.695312 C 54.1875 53.210938 51.808594 56.308594 48.40625 57.226562 C 48.128906 57.300781 47.894531 57.488281 47.757812 57.746094 C 46.402344 60.324219 43.753906 61.925781 40.847656 61.925781 C 36.539062 61.925781 33.035156 58.421875 33.035156 54.117188 C 33.035156 53.824219 33.023438 53.535156 32.996094 53.25 C 33.023438 53.160156 33.035156 53.066406 33.035156 52.972656 L 33.035156 18.730469 C 33.035156 16.863281 34.554688 15.34375 36.421875 15.34375 C 36.996094 15.34375 37.460938 14.878906 37.460938 14.308594 C 37.460938 13.734375 36.996094 13.269531 36.421875 13.269531 C 35.144531 13.269531 33.96875 13.714844 33.035156 14.453125 L 33.035156 5.460938 C 33.035156 3.59375 34.554688 2.074219 36.421875 2.074219 C 38.503906 2.074219 41.109375 2.988281 43.753906 4.605469 C 41.867188 5.058594 40.226562 6.339844 39.359375 8.125 C 39.109375 8.640625 39.324219 9.257812 39.839844 9.507812 C 40.355469 9.757812 40.976562 9.546875 41.226562 9.03125 C 41.984375 7.46875 43.535156 6.496094 45.269531 6.496094 C 45.832031 6.496094 46.367188 6.601562 46.863281 6.789062 C 46.917969 6.820312 46.980469 6.84375 47.042969 6.863281 C 48.640625 7.550781 49.761719 9.140625 49.761719 10.988281 C 49.761719 11.808594 49.542969 12.597656 49.128906 13.289062 C 44.550781 13.582031 40.914062 17.398438 40.914062 22.046875 C 40.914062 22.621094 41.378906 23.085938 41.953125 23.085938 C 42.523438 23.085938 42.988281 22.621094 42.988281 22.046875 C 42.988281 18.351562 45.996094 15.34375 49.691406 15.34375 C 53.390625 15.34375 56.398438 18.351562 56.398438 22.046875 C 56.398438 22.910156 56.230469 23.757812 55.90625 24.5625 C 55.734375 24.980469 55.855469 25.460938 56.199219 25.75 C 57.730469 27.027344 58.609375 28.902344 58.609375 30.894531 C 58.609375 34.589844 55.601562 37.597656 51.90625 37.597656 C 51.332031 37.597656 50.867188 38.0625 50.867188 38.636719 C 50.867188 39.207031 51.332031 39.671875 51.90625 39.671875 C 54.125 39.671875 56.15625 38.839844 57.703125 37.476562 C 58.296875 38.496094 58.609375 39.644531 58.609375 40.847656 C 58.609375 43.492188 57.042969 45.894531 54.621094 46.972656 Z M 54.621094 46.972656 "/>
<path style=" stroke:none;fill-rule:nonzero;fill:rgb(0%,0%,0%);fill-opacity:1;" d="M 49.691406 33.175781 C 47.546875 33.175781 45.746094 31.660156 45.304688 29.644531 C 49.609375 29.082031 52.941406 25.394531 52.941406 20.941406 C 52.941406 20.367188 52.476562 19.90625 51.90625 19.90625 C 51.332031 19.90625 50.867188 20.367188 50.867188 20.941406 C 50.867188 24.636719 47.859375 27.644531 44.164062 27.644531 C 42.347656 27.644531 40.648438 26.929688 39.375 25.632812 C 38.972656 25.222656 38.316406 25.21875 37.910156 25.617188 C 37.5 26.019531 37.492188 26.675781 37.894531 27.085938 C 39.332031 28.550781 41.1875 29.449219 43.203125 29.664062 C 43.675781 32.820312 46.40625 35.25 49.691406 35.25 C 50.265625 35.25 50.730469 34.785156 50.730469 34.210938 C 50.730469 33.640625 50.265625 33.175781 49.691406 33.175781 Z M 49.691406 33.175781 "/>
<path style=" stroke:none;fill-rule:nonzero;fill:rgb(0%,0%,0%);fill-opacity:1;" d="M 46.375 45.339844 C 45.976562 45.339844 45.582031 45.367188 45.199219 45.421875 C 45.199219 45.371094 45.199219 45.320312 45.199219 45.269531 C 45.199219 40.429688 41.261719 36.492188 36.421875 36.492188 C 35.851562 36.492188 35.386719 36.957031 35.386719 37.527344 C 35.386719 38.101562 35.851562 38.566406 36.421875 38.566406 C 40.121094 38.566406 43.128906 41.574219 43.128906 45.269531 C 43.128906 45.507812 43.113281 45.746094 43.089844 45.980469 C 39.875 47.28125 37.597656 50.4375 37.597656 54.117188 C 37.597656 54.6875 38.0625 55.152344 38.636719 55.152344 C 39.207031 55.152344 39.671875 54.6875 39.671875 54.117188 C 39.671875 50.421875 42.679688 47.414062 46.375 47.414062 C 46.949219 47.414062 47.414062 46.949219 47.414062 46.375 C 47.414062 45.804688 46.949219 45.339844 46.375 45.339844 Z M 46.375 45.339844 "/>
</g>
</svg>
