<?xml version="1.0" encoding="UTF-8"?>
<svg xmlns="http://www.w3.org/2000/svg" xmlns:xlink="http://www.w3.org/1999/xlink" width="64px" height="64px" viewBox="0 0 64 64" version="1.1">
<g id="surface1">
<path style=" stroke:none;fill-rule:evenodd;fill:rgb(0.392157%,0.392157%,0.392157%);fill-opacity:1;" d="M 32 14.144531 C 30.835938 9.621094 24.929688 6.933594 20.371094 6.933594 C 11.378906 6.933594 4.089844 13.910156 4.089844 23.214844 C 4.089844 40.660156 20.671875 45.3125 29.675781 55.777344 C 29.753906 55.894531 29.847656 55.988281 29.953125 56.089844 C 31.09375 57.21875 32.929688 57.21875 34.070312 56.089844 C 34.175781 55.988281 34.246094 55.894531 34.324219 55.777344 C 43.339844 45.289062 59.910156 40.730469 59.910156 23.214844 C 59.910156 13.910156 52.621094 6.933594 43.628906 6.933594 C 39.070312 6.933594 33.164062 9.621094 32 14.144531 Z M 44.386719 17.402344 C 43.292969 17.203125 42.46875 16.25 42.46875 15.109375 C 42.46875 13.832031 43.515625 12.75 44.792969 12.75 C 46.640625 12.75 48.886719 14.0625 50.769531 15.925781 C 52.6875 17.832031 54.097656 20.378906 54.097656 22.050781 C 54.097656 23.332031 53.050781 24.378906 51.769531 24.378906 C 50.628906 24.378906 49.675781 23.550781 49.476562 22.457031 C 48.898438 20.121094 46.898438 17.980469 44.386719 17.402344 Z M 44.386719 17.402344 "/>
</g>
</svg>
